<?xml version="1.0" encoding="UTF-8" standalone="no"?>
<!DOCTYPE svg PUBLIC "-//W3C//DTD SVG 1.1//EN"
 "http://www.w3.org/Graphics/SVG/1.1/DTD/svg11.dtd">
<!-- Generated by graphviz version 2.40.1 (20161225.0304)
 -->
<!-- Title: G Pages: 1 -->
<svg width="656pt" height="828pt"
 viewBox="0.00 0.00 655.54 828.00" xmlns="http://www.w3.org/2000/svg" xmlns:xlink="http://www.w3.org/1999/xlink">
<g id="graph0" class="graph" transform="scale(1 1) rotate(0) translate(4 824)">
<title>G</title>
<polygon fill="#ffffff" stroke="transparent" points="-4,4 -4,-824 651.5408,-824 651.5408,4 -4,4"/>
<g id="clust1" class="cluster">
<title>cluster_Global</title>
<path fill="none" stroke="#c0c0c0" d="M459.3226,-8C459.3226,-8 627.5408,-8 627.5408,-8 633.5408,-8 639.5408,-14 639.5408,-20 639.5408,-20 639.5408,-800 639.5408,-800 639.5408,-806 633.5408,-812 627.5408,-812 627.5408,-812 459.3226,-812 459.3226,-812 453.3226,-812 447.3226,-806 447.3226,-800 447.3226,-800 447.3226,-20 447.3226,-20 447.3226,-14 453.3226,-8 459.3226,-8"/>
<text text-anchor="middle" x="543.4317" y="-799.2" font-family="Times,serif" font-size="11.00" fill="#c0c0c0">Global</text>
</g>
<g id="clust2" class="cluster">
<title>cluster_\Quark</title>
<path fill="none" stroke="#c0c0c0" d="M467.3226,-16C467.3226,-16 619.5408,-16 619.5408,-16 625.5408,-16 631.5408,-22 631.5408,-28 631.5408,-28 631.5408,-773 631.5408,-773 631.5408,-779 625.5408,-785 619.5408,-785 619.5408,-785 467.3226,-785 467.3226,-785 461.3226,-785 455.3226,-779 455.3226,-773 455.3226,-773 455.3226,-28 455.3226,-28 455.3226,-22 461.3226,-16 467.3226,-16"/>
<text text-anchor="middle" x="543.4317" y="-772.2" font-family="Times,serif" font-size="11.00" fill="#c0c0c0">Quark</text>
</g>
<g id="clust3" class="cluster">
<title>cluster_\Quark\Router</title>
<path fill="none" stroke="#c0c0c0" d="M489.9236,-579C489.9236,-579 596.9397,-579 596.9397,-579 602.9397,-579 608.9397,-585 608.9397,-591 608.9397,-591 608.9397,-746 608.9397,-746 608.9397,-752 602.9397,-758 596.9397,-758 596.9397,-758 489.9236,-758 489.9236,-758 483.9236,-758 477.9236,-752 477.9236,-746 477.9236,-746 477.9236,-591 477.9236,-591 477.9236,-585 483.9236,-579 489.9236,-579"/>
<text text-anchor="middle" x="543.4317" y="-745.2" font-family="Times,serif" font-size="11.00" fill="#c0c0c0">Router</text>
</g>
<g id="clust4" class="cluster">
<title>cluster_\Quark\Twig</title>
<path fill="none" stroke="#c0c0c0" d="M475.3226,-419C475.3226,-419 611.5408,-419 611.5408,-419 617.5408,-419 623.5408,-425 623.5408,-431 623.5408,-431 623.5408,-559 623.5408,-559 623.5408,-565 617.5408,-571 611.5408,-571 611.5408,-571 475.3226,-571 475.3226,-571 469.3226,-571 463.3226,-565 463.3226,-559 463.3226,-559 463.3226,-431 463.3226,-431 463.3226,-425 469.3226,-419 475.3226,-419"/>
<text text-anchor="middle" x="543.4317" y="-558.2" font-family="Times,serif" font-size="11.00" fill="#c0c0c0">Twig</text>
</g>
<g id="clust5" class="cluster">
<title>cluster_\Quark\Twig\Extensions</title>
<path fill="none" stroke="#c0c0c0" d="M483.3226,-473C483.3226,-473 603.5408,-473 603.5408,-473 609.5408,-473 615.5408,-479 615.5408,-485 615.5408,-485 615.5408,-532 615.5408,-532 615.5408,-538 609.5408,-544 603.5408,-544 603.5408,-544 483.3226,-544 483.3226,-544 477.3226,-544 471.3226,-538 471.3226,-532 471.3226,-532 471.3226,-485 471.3226,-485 471.3226,-479 477.3226,-473 483.3226,-473"/>
<text text-anchor="middle" x="543.4317" y="-531.2" font-family="Times,serif" font-size="11.00" fill="#c0c0c0">Extensions</text>
</g>
<g id="clust6" class="cluster">
<title>cluster_\Quark\Utils</title>
<path fill="none" stroke="#c0c0c0" d="M509.7269,-178C509.7269,-178 577.1365,-178 577.1365,-178 583.1365,-178 589.1365,-184 589.1365,-190 589.1365,-190 589.1365,-399 589.1365,-399 589.1365,-405 583.1365,-411 577.1365,-411 577.1365,-411 509.7269,-411 509.7269,-411 503.7269,-411 497.7269,-405 497.7269,-399 497.7269,-399 497.7269,-190 497.7269,-190 497.7269,-184 503.7269,-178 509.7269,-178"/>
<text text-anchor="middle" x="543.4317" y="-398.2" font-family="Times,serif" font-size="11.00" fill="#c0c0c0">Utils</text>
</g>
<!-- \\Quark\\Router\\Route -->
<g id="node1" class="node">
<title>\\Quark\\Router\\Route</title>
<polygon fill="none" stroke="#000000" points="570.4317,-731 516.4317,-731 516.4317,-695 570.4317,-695 570.4317,-731"/>
<text text-anchor="middle" x="543.4317" y="-709.7" font-family="Courier,monospace" font-size="11.00" fill="#000000">Route</text>
</g>
<!-- \\Quark\\Router\\RouteCollection -->
<g id="node2" class="node">
<title>\\Quark\\Router\\RouteCollection</title>
<polygon fill="none" stroke="#000000" points="600.9478,-677 485.9156,-677 485.9156,-641 600.9478,-641 600.9478,-677"/>
<text text-anchor="middle" x="543.4317" y="-655.7" font-family="Courier,monospace" font-size="11.00" fill="#000000">RouteCollection</text>
</g>
<!-- \\SplObjectStorage -->
<g id="node14" class="node">
<title>\\SplObjectStorage</title>
<ellipse fill="none" stroke="#000000" cx="203.6613" cy="-659" rx="74.8948" ry="18"/>
<text text-anchor="middle" x="203.6613" y="-654.8" font-family="Times,serif" font-size="14.00" fill="#c0c0c0">\SplObjectStorage</text>
</g>
<!-- \\Quark\\Router\\RouteCollection&#45;&gt;\\SplObjectStorage -->
<g id="edge2" class="edge">
<title>\\Quark\\Router\\RouteCollection&#45;&gt;\\SplObjectStorage</title>
<path fill="none" stroke="#000000" d="M485.7943,-659C431.8106,-659 350.4562,-659 288.9577,-659"/>
<polygon fill="none" stroke="#000000" points="288.8796,-655.5001 278.8796,-659 288.8796,-662.5001 288.8796,-655.5001"/>
</g>
<!-- \\Quark\\Router\\Router -->
<g id="node3" class="node">
<title>\\Quark\\Router\\Router</title>
<polygon fill="none" stroke="#000000" points="571.0395,-623 515.8239,-623 515.8239,-587 571.0395,-587 571.0395,-623"/>
<text text-anchor="middle" x="543.4317" y="-601.7" font-family="Courier,monospace" font-size="11.00" fill="#000000">Router</text>
</g>
<!-- \\Quark\\Twig\\Extensions\\ManifestExtension -->
<g id="node4" class="node">
<title>\\Quark\\Twig\\Extensions\\ManifestExtension</title>
<polygon fill="none" stroke="#000000" points="607.6501,-517 479.2132,-517 479.2132,-481 607.6501,-481 607.6501,-517"/>
<text text-anchor="middle" x="543.4317" y="-495.7" font-family="Courier,monospace" font-size="11.00" fill="#000000">ManifestExtension</text>
</g>
<!-- \\Twig_Extension -->
<g id="node15" class="node">
<title>\\Twig_Extension</title>
<ellipse fill="none" stroke="#000000" cx="203.6613" cy="-526" rx="67.8955" ry="18"/>
<text text-anchor="middle" x="203.6613" y="-521.8" font-family="Times,serif" font-size="14.00" fill="#c0c0c0">Twig_Extension</text>
</g>
<!-- \\Quark\\Twig\\Extensions\\ManifestExtension&#45;&gt;\\Twig_Extension -->
<g id="edge3" class="edge">
<title>\\Quark\\Twig\\Extensions\\ManifestExtension&#45;&gt;\\Twig_Extension</title>
<path fill="none" stroke="#000000" d="M479.124,-504.1102C422.1995,-508.6338 339.0733,-515.2394 279.0398,-520.01"/>
<polygon fill="none" stroke="#000000" points="278.5535,-516.5375 268.8622,-520.8188 279.1081,-523.5155 278.5535,-516.5375"/>
</g>
<!-- \\Twig_Extension_GlobalsInterface -->
<g id="node16" class="node">
<title>\\Twig_Extension_GlobalsInterface</title>
<ellipse fill="none" stroke="#000000" cx="203.6613" cy="-472" rx="131.0888" ry="18"/>
<text text-anchor="middle" x="203.6613" y="-467.8" font-family="Times,serif" font-size="14.00" fill="#c0c0c0">Twig_Extension_GlobalsInterface</text>
</g>
<!-- \\Quark\\Twig\\Extensions\\ManifestExtension&#45;&gt;\\Twig_Extension_GlobalsInterface -->
<g id="edge4" class="edge">
<title>\\Quark\\Twig\\Extensions\\ManifestExtension&#45;&gt;\\Twig_Extension_GlobalsInterface</title>
<path fill="none" stroke="#000000" stroke-dasharray="1,5" d="M479.124,-493.8898C436.4679,-490.5001 379.0989,-485.9412 327.7589,-481.8615"/>
<polygon fill="none" stroke="#000000" points="327.8233,-478.3556 317.5774,-481.0524 327.2687,-485.3336 327.8233,-478.3556"/>
</g>
<!-- \\Quark\\Twig\\Twig -->
<g id="node5" class="node">
<title>\\Quark\\Twig\\Twig</title>
<polygon fill="none" stroke="#000000" points="570.4317,-463 516.4317,-463 516.4317,-427 570.4317,-427 570.4317,-463"/>
<text text-anchor="middle" x="543.4317" y="-441.7" font-family="Courier,monospace" font-size="11.00" fill="#000000">Twig</text>
</g>
<!-- \\Quark\\Utils\\ClientIP -->
<g id="node6" class="node">
<title>\\Quark\\Utils\\ClientIP</title>
<polygon fill="none" stroke="#000000" points="577.7405,-384 509.1228,-384 509.1228,-348 577.7405,-348 577.7405,-384"/>
<text text-anchor="middle" x="543.4317" y="-362.7" font-family="Courier,monospace" font-size="11.00" fill="#000000">ClientIP</text>
</g>
<!-- \\Quark\\Utils\\Geocoder -->
<g id="node7" class="node">
<title>\\Quark\\Utils\\Geocoder</title>
<polygon fill="none" stroke="#000000" points="577.7405,-330 509.1228,-330 509.1228,-294 577.7405,-294 577.7405,-330"/>
<text text-anchor="middle" x="543.4317" y="-308.7" font-family="Courier,monospace" font-size="11.00" fill="#000000">Geocoder</text>
</g>
<!-- \\Quark\\Utils\\Locale -->
<g id="node8" class="node">
<title>\\Quark\\Utils\\Locale</title>
<polygon fill="none" stroke="#000000" points="571.0395,-276 515.8239,-276 515.8239,-240 571.0395,-240 571.0395,-276"/>
<text text-anchor="middle" x="543.4317" y="-254.7" font-family="Courier,monospace" font-size="11.00" fill="#000000">Locale</text>
</g>
<!-- \\Quark\\Utils\\UserAgent -->
<g id="node9" class="node">
<title>\\Quark\\Utils\\UserAgent</title>
<polygon fill="none" stroke="#000000" points="581.3425,-222 505.5209,-222 505.5209,-186 581.3425,-186 581.3425,-222"/>
<text text-anchor="middle" x="543.4317" y="-200.7" font-family="Courier,monospace" font-size="11.00" fill="#000000">UserAgent</text>
</g>
<!-- \\Quark\\Application -->
<g id="node10" class="node">
<title>\\Quark\\Application</title>
<polygon fill="none" stroke="#000000" points="587.5444,-168 499.319,-168 499.319,-132 587.5444,-132 587.5444,-168"/>
<text text-anchor="middle" x="543.4317" y="-146.7" font-family="Courier,monospace" font-size="11.00" fill="#000000">Application</text>
</g>
<!-- \\Quark\\Config -->
<g id="node11" class="node">
<title>\\Quark\\Config</title>
<polygon fill="none" stroke="#000000" points="571.0395,-114 515.8239,-114 515.8239,-78 571.0395,-78 571.0395,-114"/>
<text text-anchor="middle" x="543.4317" y="-92.7" font-family="Courier,monospace" font-size="11.00" fill="#000000">Config</text>
</g>
<!-- \\Noodlehaus\\AbstractConfig -->
<g id="node13" class="node">
<title>\\Noodlehaus\\AbstractConfig</title>
<ellipse fill="none" stroke="#000000" cx="203.6613" cy="-96" rx="203.8227" ry="18"/>
<text text-anchor="middle" x="203.6613" y="-91.8" font-family="Times,serif" font-size="14.00" fill="#c0c0c0">\Noodlehaus\AbstractConfigoodlehaus\AbstractConfig</text>
</g>
<!-- \\Quark\\Config&#45;&gt;\\Noodlehaus\\AbstractConfig -->
<g id="edge1" class="edge">
<title>\\Quark\\Config&#45;&gt;\\Noodlehaus\\AbstractConfig</title>
<path fill="none" stroke="#000000" d="M515.6268,-96C492.4213,-96 456.9759,-96 418.1888,-96"/>
<polygon fill="none" stroke="#000000" points="417.7169,-92.5001 407.7169,-96 417.7168,-99.5001 417.7169,-92.5001"/>
</g>
<!-- \\Quark\\Manifest -->
<g id="node12" class="node">
<title>\\Quark\\Manifest</title>
<polygon fill="none" stroke="#000000" points="577.7405,-60 509.1228,-60 509.1228,-24 577.7405,-24 577.7405,-60"/>
<text text-anchor="middle" x="543.4317" y="-38.7" font-family="Courier,monospace" font-size="11.00" fill="#000000">Manifest</text>
</g>
</g>
</svg>
