<?xml version="1.0" encoding="UTF-8" standalone="no"?>
<!DOCTYPE svg PUBLIC "-//W3C//DTD SVG 1.1//EN"
 "http://www.w3.org/Graphics/SVG/1.1/DTD/svg11.dtd">
<!-- Generated by graphviz version 2.40.1 (20161225.0304)
 -->
<!-- Title: G Pages: 1 -->
<svg width="639pt" height="828pt"
 viewBox="0.00 0.00 639.04 828.00" xmlns="http://www.w3.org/2000/svg" xmlns:xlink="http://www.w3.org/1999/xlink">
<g id="graph0" class="graph" transform="scale(1 1) rotate(0) translate(4 824)">
<title>G</title>
<polygon fill="#ffffff" stroke="transparent" points="-4,4 -4,-824 635.0381,-824 635.0381,4 -4,4"/>
<g id="clust1" class="cluster">
<title>cluster_Global</title>
<path fill="none" stroke="#c0c0c0" d="M462.6231,-8C462.6231,-8 611.0381,-8 611.0381,-8 617.0381,-8 623.0381,-14 623.0381,-20 623.0381,-20 623.0381,-800 623.0381,-800 623.0381,-806 617.0381,-812 611.0381,-812 611.0381,-812 462.6231,-812 462.6231,-812 456.6231,-812 450.6231,-806 450.6231,-800 450.6231,-800 450.6231,-20 450.6231,-20 450.6231,-14 456.6231,-8 462.6231,-8"/>
<text text-anchor="middle" x="536.8306" y="-799.2" font-family="Times,serif" font-size="11.00" fill="#c0c0c0">Global</text>
</g>
<g id="clust2" class="cluster">
<title>cluster_\Quark</title>
<path fill="none" stroke="#c0c0c0" d="M470.6231,-16C470.6231,-16 603.0381,-16 603.0381,-16 609.0381,-16 615.0381,-22 615.0381,-28 615.0381,-28 615.0381,-773 615.0381,-773 615.0381,-779 609.0381,-785 603.0381,-785 603.0381,-785 470.6231,-785 470.6231,-785 464.6231,-785 458.6231,-779 458.6231,-773 458.6231,-773 458.6231,-28 458.6231,-28 458.6231,-22 464.6231,-16 470.6231,-16"/>
<text text-anchor="middle" x="536.8306" y="-772.2" font-family="Times,serif" font-size="11.00" fill="#c0c0c0">Quark</text>
</g>
<g id="clust3" class="cluster">
<title>cluster_\Quark\Router</title>
<path fill="none" stroke="#c0c0c0" d="M483.3226,-579C483.3226,-579 590.3387,-579 590.3387,-579 596.3387,-579 602.3387,-585 602.3387,-591 602.3387,-591 602.3387,-746 602.3387,-746 602.3387,-752 596.3387,-758 590.3387,-758 590.3387,-758 483.3226,-758 483.3226,-758 477.3226,-758 471.3226,-752 471.3226,-746 471.3226,-746 471.3226,-591 471.3226,-591 471.3226,-585 477.3226,-579 483.3226,-579"/>
<text text-anchor="middle" x="536.8306" y="-745.2" font-family="Times,serif" font-size="11.00" fill="#c0c0c0">Router</text>
</g>
<g id="clust4" class="cluster">
<title>cluster_\Quark\Twig</title>
<path fill="none" stroke="#c0c0c0" d="M478.6231,-419C478.6231,-419 595.0381,-419 595.0381,-419 601.0381,-419 607.0381,-425 607.0381,-431 607.0381,-431 607.0381,-559 607.0381,-559 607.0381,-565 601.0381,-571 595.0381,-571 595.0381,-571 478.6231,-571 478.6231,-571 472.6231,-571 466.6231,-565 466.6231,-559 466.6231,-559 466.6231,-431 466.6231,-431 466.6231,-425 472.6231,-419 478.6231,-419"/>
<text text-anchor="middle" x="536.8306" y="-558.2" font-family="Times,serif" font-size="11.00" fill="#c0c0c0">Twig</text>
</g>
<g id="clust5" class="cluster">
<title>cluster_\Quark\Twig\Extensions</title>
<path fill="none" stroke="#c0c0c0" d="M486.6231,-473C486.6231,-473 587.0381,-473 587.0381,-473 593.0381,-473 599.0381,-479 599.0381,-485 599.0381,-485 599.0381,-532 599.0381,-532 599.0381,-538 593.0381,-544 587.0381,-544 587.0381,-544 486.6231,-544 486.6231,-544 480.6231,-544 474.6231,-538 474.6231,-532 474.6231,-532 474.6231,-485 474.6231,-485 474.6231,-479 480.6231,-473 486.6231,-473"/>
<text text-anchor="middle" x="536.8306" y="-531.2" font-family="Times,serif" font-size="11.00" fill="#c0c0c0">Extensions</text>
</g>
<g id="clust6" class="cluster">
<title>cluster_\Quark\Utils</title>
<path fill="none" stroke="#c0c0c0" d="M503.1258,-178C503.1258,-178 570.5354,-178 570.5354,-178 576.5354,-178 582.5354,-184 582.5354,-190 582.5354,-190 582.5354,-399 582.5354,-399 582.5354,-405 576.5354,-411 570.5354,-411 570.5354,-411 503.1258,-411 503.1258,-411 497.1258,-411 491.1258,-405 491.1258,-399 491.1258,-399 491.1258,-190 491.1258,-190 491.1258,-184 497.1258,-178 503.1258,-178"/>
<text text-anchor="middle" x="536.8306" y="-398.2" font-family="Times,serif" font-size="11.00" fill="#c0c0c0">Utils</text>
</g>
<!-- \\Quark\\Router\\Route -->
<g id="node1" class="node">
<title>\\Quark\\Router\\Route</title>
<polygon fill="none" stroke="#000000" points="563.8306,-731 509.8306,-731 509.8306,-695 563.8306,-695 563.8306,-731"/>
<text text-anchor="middle" x="536.8306" y="-709.7" font-family="Courier,monospace" font-size="11.00" fill="#000000">Route</text>
</g>
<!-- \\Quark\\Router\\RouteCollection -->
<g id="node2" class="node">
<title>\\Quark\\Router\\RouteCollection</title>
<polygon fill="none" stroke="#000000" points="594.3467,-677 479.3145,-677 479.3145,-641 594.3467,-641 594.3467,-677"/>
<text text-anchor="middle" x="536.8306" y="-655.7" font-family="Courier,monospace" font-size="11.00" fill="#000000">RouteCollection</text>
</g>
<!-- \\SplObjectStorage -->
<g id="node14" class="node">
<title>\\SplObjectStorage</title>
<ellipse fill="none" stroke="#000000" cx="203.6613" cy="-659" rx="74.8948" ry="18"/>
<text text-anchor="middle" x="203.6613" y="-654.8" font-family="Times,serif" font-size="14.00" fill="#c0c0c0">\SplObjectStorage</text>
</g>
<!-- \\Quark\\Router\\RouteCollection&#45;&gt;\\SplObjectStorage -->
<g id="edge2" class="edge">
<title>\\Quark\\Router\\RouteCollection&#45;&gt;\\SplObjectStorage</title>
<path fill="none" stroke="#000000" d="M479.1773,-659C426.7115,-659 348.5746,-659 288.8976,-659"/>
<polygon fill="none" stroke="#000000" points="288.7344,-655.5001 278.7344,-659 288.7343,-662.5001 288.7344,-655.5001"/>
</g>
<!-- \\Quark\\Router\\Router -->
<g id="node3" class="node">
<title>\\Quark\\Router\\Router</title>
<polygon fill="none" stroke="#000000" points="564.4384,-623 509.2228,-623 509.2228,-587 564.4384,-587 564.4384,-623"/>
<text text-anchor="middle" x="536.8306" y="-601.7" font-family="Courier,monospace" font-size="11.00" fill="#000000">Router</text>
</g>
<!-- \\Quark\\Twig\\Extensions\\QuarkExtension -->
<g id="node4" class="node">
<title>\\Quark\\Twig\\Extensions\\QuarkExtension</title>
<polygon fill="none" stroke="#000000" points="591.2465,-517 482.4148,-517 482.4148,-481 591.2465,-481 591.2465,-517"/>
<text text-anchor="middle" x="536.8306" y="-495.7" font-family="Courier,monospace" font-size="11.00" fill="#000000">QuarkExtension</text>
</g>
<!-- \\Twig_Extension -->
<g id="node15" class="node">
<title>\\Twig_Extension</title>
<ellipse fill="none" stroke="#000000" cx="203.6613" cy="-526" rx="67.8955" ry="18"/>
<text text-anchor="middle" x="203.6613" y="-521.8" font-family="Times,serif" font-size="14.00" fill="#c0c0c0">Twig_Extension</text>
</g>
<!-- \\Quark\\Twig\\Extensions\\QuarkExtension&#45;&gt;\\Twig_Extension -->
<g id="edge3" class="edge">
<title>\\Quark\\Twig\\Extensions\\QuarkExtension&#45;&gt;\\Twig_Extension</title>
<path fill="none" stroke="#000000" d="M482.5597,-503.3981C427.1906,-507.8852 340.8354,-514.8834 278.8855,-519.9038"/>
<polygon fill="none" stroke="#000000" points="278.4603,-516.4267 268.7758,-520.7231 279.0258,-523.4039 278.4603,-516.4267"/>
</g>
<!-- \\Twig_Extension_GlobalsInterface -->
<g id="node16" class="node">
<title>\\Twig_Extension_GlobalsInterface</title>
<ellipse fill="none" stroke="#000000" cx="203.6613" cy="-472" rx="131.0888" ry="18"/>
<text text-anchor="middle" x="203.6613" y="-467.8" font-family="Times,serif" font-size="14.00" fill="#c0c0c0">Twig_Extension_GlobalsInterface</text>
</g>
<!-- \\Quark\\Twig\\Extensions\\QuarkExtension&#45;&gt;\\Twig_Extension_GlobalsInterface -->
<g id="edge4" class="edge">
<title>\\Quark\\Twig\\Extensions\\QuarkExtension&#45;&gt;\\Twig_Extension_GlobalsInterface</title>
<path fill="none" stroke="#000000" stroke-dasharray="1,5" d="M482.5597,-494.6019C440.5525,-491.1976 380.7101,-486.348 327.2211,-482.0133"/>
<polygon fill="none" stroke="#000000" points="327.2149,-478.5014 316.9648,-481.1821 326.6494,-485.4785 327.2149,-478.5014"/>
</g>
<!-- \\Quark\\Twig\\Twig -->
<g id="node5" class="node">
<title>\\Quark\\Twig\\Twig</title>
<polygon fill="none" stroke="#000000" points="563.8306,-463 509.8306,-463 509.8306,-427 563.8306,-427 563.8306,-463"/>
<text text-anchor="middle" x="536.8306" y="-441.7" font-family="Courier,monospace" font-size="11.00" fill="#000000">Twig</text>
</g>
<!-- \\Quark\\Utils\\ClientIP -->
<g id="node6" class="node">
<title>\\Quark\\Utils\\ClientIP</title>
<polygon fill="none" stroke="#000000" points="571.1395,-384 502.5218,-384 502.5218,-348 571.1395,-348 571.1395,-384"/>
<text text-anchor="middle" x="536.8306" y="-362.7" font-family="Courier,monospace" font-size="11.00" fill="#000000">ClientIP</text>
</g>
<!-- \\Quark\\Utils\\Geocoder -->
<g id="node7" class="node">
<title>\\Quark\\Utils\\Geocoder</title>
<polygon fill="none" stroke="#000000" points="571.1395,-330 502.5218,-330 502.5218,-294 571.1395,-294 571.1395,-330"/>
<text text-anchor="middle" x="536.8306" y="-308.7" font-family="Courier,monospace" font-size="11.00" fill="#000000">Geocoder</text>
</g>
<!-- \\Quark\\Utils\\Locale -->
<g id="node8" class="node">
<title>\\Quark\\Utils\\Locale</title>
<polygon fill="none" stroke="#000000" points="564.4384,-276 509.2228,-276 509.2228,-240 564.4384,-240 564.4384,-276"/>
<text text-anchor="middle" x="536.8306" y="-254.7" font-family="Courier,monospace" font-size="11.00" fill="#000000">Locale</text>
</g>
<!-- \\Quark\\Utils\\UserAgent -->
<g id="node9" class="node">
<title>\\Quark\\Utils\\UserAgent</title>
<polygon fill="none" stroke="#000000" points="574.7414,-222 498.9198,-222 498.9198,-186 574.7414,-186 574.7414,-222"/>
<text text-anchor="middle" x="536.8306" y="-200.7" font-family="Courier,monospace" font-size="11.00" fill="#000000">UserAgent</text>
</g>
<!-- \\Quark\\Application -->
<g id="node10" class="node">
<title>\\Quark\\Application</title>
<polygon fill="none" stroke="#000000" points="580.9433,-168 492.718,-168 492.718,-132 580.9433,-132 580.9433,-168"/>
<text text-anchor="middle" x="536.8306" y="-146.7" font-family="Courier,monospace" font-size="11.00" fill="#000000">Application</text>
</g>
<!-- \\Quark\\Config -->
<g id="node11" class="node">
<title>\\Quark\\Config</title>
<polygon fill="none" stroke="#000000" points="564.4384,-114 509.2228,-114 509.2228,-78 564.4384,-78 564.4384,-114"/>
<text text-anchor="middle" x="536.8306" y="-92.7" font-family="Courier,monospace" font-size="11.00" fill="#000000">Config</text>
</g>
<!-- \\Noodlehaus\\AbstractConfig -->
<g id="node13" class="node">
<title>\\Noodlehaus\\AbstractConfig</title>
<ellipse fill="none" stroke="#000000" cx="203.6613" cy="-96" rx="203.8227" ry="18"/>
<text text-anchor="middle" x="203.6613" y="-91.8" font-family="Times,serif" font-size="14.00" fill="#c0c0c0">\Noodlehaus\AbstractConfigoodlehaus\AbstractConfig</text>
</g>
<!-- \\Quark\\Config&#45;&gt;\\Noodlehaus\\AbstractConfig -->
<g id="edge1" class="edge">
<title>\\Quark\\Config&#45;&gt;\\Noodlehaus\\AbstractConfig</title>
<path fill="none" stroke="#000000" d="M508.9978,-96C486.9829,-96 453.9934,-96 417.728,-96"/>
<polygon fill="none" stroke="#000000" points="417.4188,-92.5001 407.4188,-96 417.4188,-99.5001 417.4188,-92.5001"/>
</g>
<!-- \\Quark\\Manifest -->
<g id="node12" class="node">
<title>\\Quark\\Manifest</title>
<polygon fill="none" stroke="#000000" points="571.1395,-60 502.5218,-60 502.5218,-24 571.1395,-24 571.1395,-60"/>
<text text-anchor="middle" x="536.8306" y="-38.7" font-family="Courier,monospace" font-size="11.00" fill="#000000">Manifest</text>
</g>
</g>
</svg>
